<?xml version="1.0" encoding="UTF-8" standalone="yes"?>
<svg baseProfile="tiny-ps" version="1.2" viewBox="0 0 200 200" xmlns="http://www.w3.org/2000/svg">
<title>bimi-svg-tiny-12-ps</title>
<path transform="translate(0)" d="m0 0h200v200h-200v-200z" fill="#2A2D6B"/>
<path transform="translate(130,22)" d="m0 0 5 1c-0.64985 4.7137-2.5156 8.5769-4.5625 12.812-0.32936 0.69287-0.65871 1.3857-0.99805 2.0996-0.80818 1.6983-1.6231 3.3934-2.4395 5.0879 0.55945 0.24492 1.1189 0.48984 1.6953 0.74219 9.1902 5.0157 17.382 14.567 21.305 24.258l-1 2c-0.4125-0.56848-0.825-1.137-1.25-1.7227-3.5506-4.7473-7.1638-8.8129-11.73-12.594-1.3317-1.1102-2.6282-2.2642-3.8828-3.4609-6.7806-6.4156-15.564-12.015-25.137-12.223l-2 1c-0.91693 2.7508-1.1089 4.3595-1.0625 7.1875l0.0625 3.8125 3-2c4.6926-0.3476 7.7271 0.21135 12 2 1.6425 0.3097 3.2889 0.59941 4.9375 0.875 4.4673 0.85218 7.5373 2.1286 11.062 5.125 1.6419 2.7537 2.2511 5.0991 2.6875 8.25 0.98592 4.7888 3.1916 7.2388 6.4961 10.723 4.824 5.3843 7.107 10.625 7.5039 17.781 0.35744 2.5691 1.2066 4.3751 2.375 6.6836 2.6115 5.4613 2.9843 10.793 1.3594 16.645-0.9847 2.4879-1.9834 4.517-3.9727 6.3359-1.8155 1.9819-1.9553 3.3207-2.3242 5.957-0.86816 4.51-2.4242 6.7569-6.125 9.625h-2l-0.1875 2.25c-1.0753 3.6396-2.7749 4.5408-5.8125 6.75l-2.375 2.375c-5.3978 5.3978-10.755 9.4828-17.488 13.133-2.4291 1.6963-3.1722 2.7149-4.1367 5.4922-0.45065 2.5853-0.45065 2.5853-0.625 5.25-0.074766 0.89203-0.14953 1.7841-0.22656 2.7031-0.073477 1.0132-0.073477 1.0132-0.14844 2.0469h-3c-0.76738-11.494-0.76738-11.494 1.6875-16.312 3.7925-3.628 8.7273-6.1517 13.254-8.7578 2.7873-1.7586 4.8526-3.5025 7.0586-5.9297-3.2008 0.64015-6.0992 1.7939-9.0703 3.1328-1.3137 0.59039-2.6432 1.1466-3.9844 1.6719-4.5161 1.9257-7.6551 4.1142-10.109 8.4297-1.9072 6.3097-1.3394 13.257-0.83594 19.766l1 1c11.081-0.2052 19.611-6.7764 27.371-14.184 11.757-12.596 18.909-28.756 24.629-44.816 1.3009 3.9026 0.32513 6.7167-0.6875 10.562-0.18861 0.72236-0.37721 1.4447-0.57153 2.189-5.2898 19.741-16.412 36.329-34.245 46.877-0.82371 0.45246-1.6474 0.90492-2.4961 1.3711-0.9726 0.53947-0.9726 0.53947-1.9648 1.0898-4.4928 2.2108-8.1499 2.4708-13.035 1.9102-2.4312-1.8702-3.6407-3.2814-5-6-0.10212-1.866-0.13949-3.7357-0.14717-5.6045-0.010733-1.7877-0.010733-1.7877-0.021683-3.6115-0.0026889-1.3143-0.0053778-2.6287-0.0081482-3.9828-0.0062638-1.3928-0.012911-2.7856-0.019913-4.1784-0.017416-3.7893-0.027963-7.5785-0.036206-11.368-0.0051482-2.3663-0.011224-4.7326-0.017511-7.0989-0.019052-7.4004-0.033284-14.801-0.041612-22.201-0.0097783-8.5487-0.036113-17.097-0.076501-25.646-0.030132-6.6039-0.044965-13.208-0.04828-19.812-0.0023536-3.9461-0.011353-7.892-0.036461-11.838-0.023235-3.7117-0.027533-7.423-0.017239-11.135 7.3349e-4 -2.0127-0.018389-4.0253-0.038065-6.0379 0.0069438-1.1974 0.013888-2.3948 0.021042-3.6285-0.0023884-1.0409-0.0047767-2.0817-0.0072374-3.1542 0.62674-3.4241 1.786-4.5826 4.495-6.7043 6.4875-1.986 11.728 0.064252 18 2l8-16z" fill="#F2F2F5"/>
<path transform="translate(86.562 35.625)" d="m0 0c1.3941-0.042539 1.3941-0.042539 2.8164-0.085938 3.4509 0.60686 4.4507 1.7438 6.6211 4.4609 0.50336 2.7115 0.50336 2.7115 0.50793 5.8762 0.011279 1.2015 0.022559 2.403 0.03418 3.6409-0.0080969 1.3149-0.016194 2.6298-0.024536 3.9846 0.0054213 1.4013 0.012544 2.8027 0.02124 4.204 0.018238 3.8038 0.011164 7.6072-0.0015163 11.411-0.010127 3.9815-7.3488e-4 7.963 0.0055447 11.945 0.007278 6.6874-0.0023144 13.375-0.021362 20.062-0.02176 7.7288-0.014724 15.457 0.0073056 23.186 0.01816 6.6371 0.020709 13.274 0.010245 19.911-0.0062327 3.9634-0.0070771 7.9267 0.006146 11.89 0.011567 3.7274 0.0035183 7.4543-0.019577 11.182-0.0078008 2.0184 0.0040624 4.0368 0.01651 6.0551-0.011279 1.2043-0.022559 2.4086-0.03418 3.6494-0.0015081 1.0447-0.0030162 2.0895-0.00457 3.1658-0.63327 3.5696-2.028 5.2376-4.5034 7.8373-3.798 2.3873-7.2453 2.2237-11.547 1.5898-11.888-2.8585-21.341-11.813-27.867-21.832-5.1309-8.9221-8.1118-18.003-10.523-27.945-0.22381-0.92144-0.44763-1.8429-0.67822-2.7922-1.5134-6.6328-1.5134-6.6328-0.38428-10.02 0.4125 1.1743 0.825 2.3487 1.25 3.5586 10.695 30.333 10.695 30.333 33.688 51.879 4.1154 1.8788 8.6297 2.7516 13.062 1.5625 2.4881-2.314 2.9697-3.7948 3.4688-7.1719 0.16086-9.1883 0.16086-9.1883-3.6484-17.285-3.6943-3.1314-8.2644-4.1642-12.82-5.543-2.068-0.91167-4.0108-1.9248-6-3v1c5.1224 4.4926 10.48 8.5306 16.406 11.895 1.5938 1.1055 1.5938 1.1055 3.5938 4.1055 0.19531 2.918 0.19531 2.918 0.125 6.1875-0.018047 1.0867-0.036094 2.1734-0.054688 3.293-0.023203 0.83145-0.046406 1.6629-0.070312 2.5195-0.99 0.33-1.98 0.66-3 1-0.016758-0.85723-0.033516-1.7145-0.050781-2.5977-0.4119-6.9595-0.4119-6.9595-4.1797-12.508-1.8841-1.1188-3.7992-2.1865-5.7383-3.207-5.6093-3.1227-10.176-7.7703-14.648-12.34-1.4987-1.5359-1.4987-1.5359-4.0078-3.1602-2.9421-2.7098-2.7904-4.3456-3.375-8.1875-1.8664-1.1833-1.8664-1.1833-4-2-4.1771-4.2178-3.4511-9.0769-3.5938-14.688-0.43639-3.5583-1.2474-4.598-3.4062-7.3125-0.14453-2.1133-0.14453-2.1133 0.1875-4.3125 0.1173-0.79535 0.23461-1.5907 0.35547-2.4102 0.45703-2.2773 0.45703-2.2773 1.457-5.5273 0.94381-3.5393 1.0968-6.304 1.1875-9.9375 0.53116-8.5281 4.5365-14.953 9.9844-21.371 1.8982-2.535 2.374-3.919 2.7656-7.0039 0.6435-3.4282 0.89677-4.2674 3.4375-6.875l2.625-1.5625 1.8125-1.125c3.3082-1.3233 6.725-2.0373 10.188-2.875l2-1c1.6644-0.095593 3.3328-0.12985 5-0.125 0.88688-0.0025781 1.7738-0.0051562 2.6875-0.0078125 2.3125 0.13281 2.3125 0.13281 4.3125 1.1328v-11c-9.3682-0.81463-15.277 1.4157-22.624 7.3008-7.3262 6.1811-13.704 12.954-19.376 20.699-1-3-1-3-0.066406-5.1641 7.7233-12.638 20.466-27.986 36.629-28.211z" fill="#F3F3F7"/>
<path transform="translate(87.5,93.125)" d="m0 0c3.0838 1.0793 3.8213 2.1104 5.5 4.875 0.34058 2.29 0.34058 2.29 0.29297 4.7656-0.014502 1.3342-0.014502 1.3342-0.029297 2.6953-0.025137 0.92039-0.050273 1.8408-0.076172 2.7891-0.020303 1.4038-0.020303 1.4038-0.041016 2.8359-0.035285 2.3053-0.084582 4.6094-0.14648 6.9141-0.52964-0.35586-1.0593-0.71172-1.605-1.0784-1.0579-0.69017-1.0579-0.69017-2.1372-1.3943-0.69464-0.45899-1.3893-0.91797-2.105-1.3909-4.5641-2.4094-8.7953-1.5243-13.653-0.13647l-2.5 1c0.80824-0.10699 1.6165-0.21398 2.4492-0.32422 1.6029-0.17982 1.6029-0.17982 3.2383-0.36328 1.0557-0.12762 2.1115-0.25523 3.1992-0.38672 4.71 0.11228 7.113 2.0739 10.363 5.3242 2.0888 3.2824 2.4485 5.9053 2.75 9.75-4.75-1.875-4.75-1.875-7-3-1.9996-0.039992-4.0005-0.043468-6 0 0.90492 0.34611 0.90492 0.34611 1.8281 0.69922 0.79922 0.32613 1.5984 0.65227 2.4219 0.98828 0.78891 0.31324 1.5778 0.62648 2.3906 0.94922 3.2065 1.8527 4.5357 3.0806 6.3594 6.3633 0.48078 3.9506 0.37617 7.8405 0.25 11.812-0.018047 1.0744-0.036094 2.1489-0.054688 3.2559-0.047019 2.6448-0.11272 5.2878-0.19531 7.9316-1.0145-0.78246-2.029-1.5649-3.0742-2.3711-4.4109-3.1535-8.9148-4.2361-14.133-5.5391-2.793-1.0898-2.793-1.0898-4.2578-2.9219-0.67691-2.7422-0.25512-4.1564 0.71484-6.793 0.40992-1.164 0.40992-1.164 0.82812-2.3516 0.92188-2.0234 0.92188-2.0234 2.9219-4.0234 2.1641-0.19531 2.1641-0.19531 4.625-0.125 0.81727 0.018047 1.6345 0.036094 2.4766 0.054688 0.62648 0.023203 1.253 0.046406 1.8984 0.070312v-2c-6.4992-0.60425-6.4992-0.60425-12.438 1.5-1.7539 2.8063-2.8433 5.552-3.8516 8.6953-0.71094 1.8047-0.71094 1.8047-2.7109 3.8047-3.2971-0.32971-4.6227-0.62268-7-3-0.37343-2.9938-0.13613-5.9911 0-9 0.0064453-0.77473 0.012891-1.5495 0.019531-2.3477 0.19955-4.3088 0.65916-6.6758 3.793-9.7148 4.4474-4.4901 5.0641-10.423 6.3281-16.391 0.85938-3.5469 0.85938-3.5469 2.8594-6.5469 2.2773-1.0977 2.2773-1.0977 4.9375-2.0625 10.416-3.8198 10.416-3.8198 10.562-3.8125z" fill="#2E316E"/>
<path transform="translate(114,54)" d="m0 0c1.6844 0.62056 3.3501 1.2929 5 2 1.4978 0.28256 2.9981 0.55227 4.5 0.8125 4.5224 0.99914 6.748 2.3024 9.5 6.1875 0.81417 2.451 1.4646 4.9174 2.1094 7.418 1.4332 4.1551 4.0457 7.2859 6.8906 10.582-1.0867 0.02127-1.0867 0.02127-2.1953 0.042969-6.5276 0.21511-6.5276 0.21511-12.242 3.0195-2.9709 3.4057-4.8157 6.7966-6.5625 10.938-0.70963-0.54141-0.70963-0.54141-1.4336-1.0938-5.4525-3.8263-8.9452-4.4235-15.566-3.9062v-15c3.8024 1.521 7.3647 3.1401 11 5-3.0257-3.2584-6.2693-5.5958-10-8-1.9315-1.9315-1.2185-5.311-1.25-7.875-0.025781-1.2555-0.051562-2.5111-0.078125-3.8047 0.32812-3.3203 0.32812-3.3203 1.6328-5.2461 2.8521-1.8072 5.4154-1.357 8.6953-1.0742z" fill="#2B2E6C"/>
<path transform="translate(88,54)" d="m0 0c2.655 1.9854 4.6958 3.547 5.4001 6.9111 0.091417 2.1545 0.037392 4.2488-0.087646 6.4014-0.022559 0.74057-0.045117 1.4811-0.068359 2.2441-0.058559 1.8153-0.14823 3.6296-0.24414 5.4434-2.97 0.66-5.94 1.32-9 2 2.97 0.33 5.94 0.66 9 1v15l-3-2c-5.8053-0.66451-5.8053-0.66451-10.688 2.0625l-2.3125 1.9375c-2.6445-0.37891-2.6445-0.37891-5-1 1.0727-7.932 2.2394-13.239 8-19-1.9311-0.042898-1.9311-0.042898-4 1-1.7927 3.488-1.7927 3.488-3 7h-2c-0.44215-0.48211-0.8843-0.96422-1.3398-1.4609-2.112-1.958-3.3847-1.9864-6.2227-2.1641-4.2775-0.295-4.2775-0.295-6.4375-1.375l2.3125-2.9375c2.067-2.8486 3.22-5.3722 4.1875-8.75 1.3073-4.2078 2.5157-6.1084 6.5-8.3125 2.5782-0.89872 5.156-1.679 7.793-2.3867 7.1149-1.9771 7.1149-1.9771 10.207-1.6133z" fill="#2F326F"/>
<path transform="translate(109.31 92.562)" d="m0 0c3.7149 0.44076 4.9931 0.91649 7.3906 3.7188 0.64195 0.85078 0.64195 0.85078 1.2969 1.7188 0.51047 0.67031 1.0209 1.3406 1.5469 2.0312 17.385 23.925 17.385 23.925 18.328 35.094 0.15082 1.5198 0.15082 1.5198 0.30469 3.0703-0.20946 3.2694-0.89006 4.5043-3.1797 6.8047-2.4375 0.5625-2.4375 0.5625-5 0-2.4401-2.1104-3.8168-3.7152-4.2812-6.9727-0.051496-3.4438 0.18919-6.7512 1.2812-10.027l-2 1c-0.23783-0.90492-0.23783-0.90492-0.48047-1.8281-1.0869-3.723-2.0786-6.6207-4.5195-9.6719-3.8645-1.9322-7.2937-2.1215-11.574-2.3242-2.4258-0.17578-2.4258-0.17578-4.4258-1.1758-0.057918-3.1249-0.093567-6.2497-0.125-9.375-0.016758-0.88945-0.033516-1.7789-0.050781-2.6953-0.0064453-0.85078-0.012891-1.7016-0.019531-2.5781-0.010474-0.78552-0.020947-1.571-0.031738-2.3804 0.42491-3.6889 2.0866-3.9526 5.5396-4.4087z" fill="#2E316E"/>
<path transform="translate(104,118)" d="m0 0c11.207-0.44828 11.207-0.44828 15 3 3.1161 5.0854 3.8284 9.8766 4.4375 15.688 0.17306 1.281 0.17306 1.281 0.34961 2.5879 0.25149 2.3032 0.42081 4.417 0.21289 6.7246-2.3297 2.7503-5.0253 3.4854-8.4375 4.4375-4.8937 1.5293-7.9582 3.9582-11.562 7.5625-0.20521-3.6658-0.32825-7.3302-0.4375-11-0.058652-1.03-0.1173-2.0599-0.17773-3.1211-0.12605-5.6541 0.20558-9.1509 3.9277-13.566 2.5025-2.5717 3.5773-3.2804 7.125-4.3125h2.5625v-1c-5.6254 0.45003-8.6149 1.6844-13 5v-12z" fill="#2C2F6D"/>
<path transform="translate(66,82)" d="m0 0c2.3848 1.6733 2.9383 2.7667 3.6875 5.6016 0.78153 7.5613-0.049473 12.296-4.6875 18.398-2 2-2 2-5 2.1875-3-0.1875-3-0.1875-5-1.1875v2l3.875 0.5c0.7193 0.092812 1.4386 0.18562 2.1797 0.28125 1.9503 0.256 1.9503 0.256 3.9453 0.21875-0.49231 5.5385-0.49231 5.5385-3.0625 7.875l-1.9375 1.125v-5l-2 1c-1.5185 0.094729-3.0411 0.12988-4.5625 0.125-1.2085 0.0038672-1.2085 0.0038672-2.4414 0.0078125-1.9961-0.13281-1.9961-0.13281-2.9961-1.1328 0.5324-7.7199 2.0339-13.514 8-18.812 2.277-1.8845 4.5356-3.5446 7-5.1875-4.4359 0.50696-6.6243 2.1717-10 5h-2c0.034335-8.0343 0.034335-8.0343 3.5625-11.562 4.3375-1.8139 6.7712-1.973 11.438-1.4375z" fill="#2F326F"/>
<path transform="translate(143,85)" d="m0 0c2.5625 2.375 2.5625 2.375 4 5v3c-0.72188-0.33-1.4438-0.66-2.1875-1-2.8295-1.006-4.8415-1.1698-7.8125-1 0.42578 4.0449 0.85696 7.5629 2.125 11.438 1.4524 5.9133 0.8167 11.222-2.125 16.562h-2c-2.3224-2.8757-4.2102-6.0679-6.1875-9.1875-0.5717-0.86432-1.1434-1.7286-1.7324-2.6191-0.53561-0.84111-1.0712-1.6822-1.623-2.5488-0.49524-0.76981-0.99048-1.5396-1.5007-2.3328-1.1939-2.886-0.85827-4.3645 0.043701-7.3118 1.8461-3.8768 4.0831-7.1595 7.25-10.062 4.0785-1.3904 7.6393-1.2106 11.75 0.0625z" fill="#2F326F"/>
<path transform="translate(186,5)" d="m0 0v5c-12.04 1.3082-23.882 2.3351-36 2v-5c11.32-3.2538 24.322-2.1192 36-2z" fill="#F6F6F8"/>
<path transform="translate(139,94)" d="m0 0c5.8434 1.2522 8.731 4.219 12 9 1.011 3.0331 1.1983 5.2594 1.25 8.4375 0.038672 1.4212 0.038672 1.4212 0.078125 2.8711-0.37571 3.0817-1.2797 4.4111-3.3281 6.6914l-0.75-3.375-1.25-3.625c-0.63938-0.25137-1.2788-0.50273-1.9375-0.76172-2.7672-1.6614-3.0635-3.5721-3.8359-6.5996-0.15727-0.68514-0.31453-1.3703-0.47656-2.0762-0.2591-1.0219-0.2591-1.0219-0.52344-2.0645-0.71644-2.9027-1.2266-5.4987-1.2266-8.498z" fill="#30336F"/>
<path transform="translate(67,149)" d="m0 0c0.495 0.27199 0.99 0.54398 1.5 0.82422 4.0741 1.9161 8.3835 3.2885 12.656 4.7012 5.5175 1.961 7.973 4.4814 11.094 9.4746 0.9104 2.4277 0.89287 4.4283 0.75 7h-2v7h-1c-0.01418-0.66387-0.028359-1.3277-0.042969-2.0117-0.30212-5.6888-0.30212-5.6888-2.832-10.676-3.6839-2.7261-7.551-5.0656-11.453-7.4648-3.647-2.5219-6.0104-5.3229-8.6719-8.8477z" fill="#353873"/>
<path transform="translate(141,115)" d="m0 0c3 1 3 1 4 3 0.17485 2.2874 0.2672 4.5814 0.3125 6.875 0.037383 1.2349 0.074766 2.4698 0.11328 3.7422-0.49065 3.8982-1.392 5.0013-4.4258 7.3828-3.7327-13.802-3.7327-13.802-1.6875-18.375 0.55688-0.86625 1.1138-1.7325 1.6875-2.625z" fill="#2F326F"/>
<path transform="translate(51,119)" d="m0 0h6l-1 17c-3-1-3-1-4.1797-2.6719-1.0444-2.964-1.0135-5.4426-0.94531-8.5781 0.018047-1.0777 0.036094-2.1553 0.054688-3.2656 0.023203-0.81984 0.046406-1.6397 0.070312-2.4844z" fill="#323571"/>
<path transform="translate(149,7)" d="m0 0v6c-1.9954 0.68026-3.9962 1.3449-6 2l-2.25 0.75-1.75 0.25-2-2c0.125-2 0.125-2 1-4 3.278-2.2244 7.0664-3 11-3z" fill="#9C9DB6"/>
<path transform="translate(149,7)" d="m0 0v6h-5l-2-5c4.75-1 4.75-1 7-1z" fill="#A5A6BD"/>
<path transform="translate(40,127)" d="m0 0c2.463 2.463 2.7677 4.2736 3.625 7.625 0.26039 1.0029 0.52078 2.0058 0.78906 3.0391 0.19336 0.77086 0.38672 1.5417 0.58594 2.3359h-3l-2-13z" fill="#CDCEDC"/>
<path transform="translate(77,74)" d="m0 0c2.125 0.375 2.125 0.375 4 1-3.6133 4.6875-3.6133 4.6875-5 6h-3c1.074-2.9152 1.7781-4.7781 4-7z" fill="#E8E9EF"/>
<path transform="translate(134,14)" d="m0 0 5 2-1 2v2c-1.98-0.66-3.96-1.32-6-2l2-4z" fill="#BABACB"/>
<path transform="translate(78,131)" d="m0 0c2.31 0.33 4.62 0.66 7 1v2h-8l1-3z" fill="#E9E9F0"/>
<path transform="translate(64,125)" d="m0 0h9c-1.6875 1.5625-1.6875 1.5625-4 3-2.75-0.3125-2.75-0.3125-5-1v-2z" fill="#C9CAD5"/>
<path transform="translate(79,113)" d="m0 0v2l-9 1c1-2 1-2 3.9375-3.1875 3.0625-0.8125 3.0625-0.8125 5.0625 0.1875z" fill="#E1E1EA"/>
</svg>
